<svg width="29" height="33" viewBox="0 0 29 33" fill="none" xmlns="http://www.w3.org/2000/svg">
<path d="M20.7143 28.0938H9.83929C7.83259 28.0938 6.21429 26.526 6.21429 24.582V6.02009H1.55357C0.647321 6.02009 0 6.70989 0 7.52511V30.6021C0 31.4801 0.647321 32.1071 1.55357 32.1071H19.1607C20.0022 32.1071 20.7143 31.4801 20.7143 30.6021V28.0938ZM20.7143 6.52176V0H9.83929C8.93304 0 8.28571 0.689802 8.28571 1.50502V24.582C8.28571 25.46 8.93304 26.0871 9.83929 26.0871H27.4464C28.2879 26.0871 29 25.46 29 24.582V8.02679H22.2679C21.3616 8.02679 20.7143 7.39969 20.7143 6.52176ZM28.4821 4.57778L24.2746 0.501674C23.9509 0.188128 23.5625 0 23.1741 0H22.7857V6.02009H29V5.64383C29 5.26758 28.8058 4.89132 28.4821 4.57778Z"/>
</svg>

